<?xml version="1.0" encoding="utf-8"?>
<!-- Generator: Adobe Illustrator 25.0.0, SVG Export Plug-In . SVG Version: 6.00 Build 0)  -->
<svg version="1.1" id="Layer_1" xmlns="http://www.w3.org/2000/svg" xmlns:xlink="http://www.w3.org/1999/xlink" x="0px" y="0px"
	 viewBox="0 0 457 630" style="enable-background:new 0 0 457 630;" xml:space="preserve">
<style type="text/css">
	.st0{fill:none;}
	.st1{fill:#FFFFFF;}
	.st2{fill:url(#SVGID_1_);}
	.st3{fill:#F0141E;}
</style>
<g>
	<rect x="-71.5" y="-73" class="st0" width="600" height="776"/>
	<path d="M199.32,126.63l-96.8,28.16L75.09,365.04c-7.11,53.32,4.2,92.23,28.77,118.6c-42.84-27.07-61.02-76.78-52.3-142.22
		l26.09-204.49l124.87-35.87L199.32,126.63z M416.82,64.4l-97.83,28.25l-44.25,358.14l-2.15,17.86h-44.72
		c-18,0-32.09-10.66-37.41-25.91c0,0,0,0,0,0c4.26,1.48,8.92,2.29,13.89,2.29h26.57h17.71l2.21-17.71l43.81-352.83L419.5,38.63
		L416.82,64.4z"/>
	<path class="st1" d="M294.63,74.49L419.5,38.63l-48.68,467.96l-174.46,0c-107.27-0.11-158.23-63.84-144.8-165.17l26.09-204.49
		l124.87-35.87l-37.61,299.25c-2.65,24.79,14.63,44.69,39.41,44.72h26.57h17.71l2.21-17.71L294.63,74.49z M386.32,524.74
		l53.55-508.7L278.69,62.54l-45.58,364.79h-26.57c-15.06,0-25.24-11.96-23.47-27.01l39.38-321.83L61.72,124.97L33.85,341.42
		C18.8,456.99,81.23,524.74,194.15,524.74H386.32z"/>
	<g>
		<g>
			<path class="st1" d="M391.04,598.08l3.1-28.94h3.38c1.98,0,3.38,1.4,3.14,3.5l-2.1,21.47c-0.24,2.1-1.22,3.97-4.26,3.97H391.04z
				 M370.52,613.96h25.91c16.46,0,21.24-10.74,22.5-23.81l1.18-12.84c1.24-13.19-7.73-23.81-20.8-23.81h-22.52L370.52,613.96z
				 M329.91,613.96h35.36l1.63-15.75h-15.17l0.89-8.17h15.17l1.33-12.6h-15.05l0.87-8.29h15.17l1.54-15.64h-35.36L329.91,613.96z
				 M300.67,569.14l-4.6,44.81h20.19l4.6-44.81h9.8l1.65-15.64h-39.68l-1.77,15.64H300.67z M262.11,613.96h20.19l6.37-60.45h-20.19
				L262.11,613.96z M200.95,613.96h18.56l2.36-23.46l2.89,23.46h8.17l7.97-23.46l-2.48,23.46h18.56l6.37-60.45h-19.61l-11.27,26.84
				l-5.54-26.84h-19.61L200.95,613.96z M175.63,613.96h20.19l6.37-60.45h-20.31L175.63,613.96z M171.66,613.96l1.62-15.87
				l-14.14-0.12l4.19-44.46h-20.19l-6.26,60.45H171.66z M84.37,613.96h19.49l3.17-29.99l5.24,29.99h19.49l6.37-60.45h-19.61
				l-3.11,29.64l-5.18-29.64H90.74L84.37,613.96z M53.91,613.96h25.32l6.32-60.45H64.48l-4.83,44.81h-4.2
				c-2.33,0-4.04-1.87-3.84-4.2l4.23-40.61H34.78l-3.48,31.28C29.47,600.77,40.14,613.96,53.91,613.96z"/>
		</g>
	</g>
	<linearGradient id="SVGID_1_" gradientUnits="userSpaceOnUse" x1="113.516" y1="543.9999" x2="387.5811" y2="69.3052">
		<stop  offset="0.0692" style="stop-color:#3E37F2"/>
		<stop  offset="0.9994" style="stop-color:#0075FF"/>
	</linearGradient>
	<path class="st2" d="M370.83,506.59l46-442.18l-97.83,28.25l-44.25,358.14l-2.15,17.86h-44.72c-18,0-32.09-10.66-37.41-25.91
		c-17.02-5.9-27.65-22.6-25.52-42.43l34.39-273.68l-96.8,28.16L75.09,365.04c-7.11,53.34,4.18,92.23,28.77,118.6
		c23.51,14.9,54.47,22.9,92.49,22.94L370.83,506.59z"/>
	<g>
		<polygon id="Fill-1_2_" class="st3" points="16.87,381.56 440.13,381.56 440.13,211.2 16.87,211.2 		"/>
		<path id="Fill-4_2_" class="st1" d="M427.1,342.12v25.72h-47.59V224.81h25.63v117.31H427.1z M223.76,294.95
			c-1.98,0.95-4.06,1.43-6.08,1.44v-46c0.03,0,0.07,0,0.13,0c2.02-0.01,17.11,0.6,17.11,22.75
			C234.93,284.71,229.79,292.01,223.76,294.95z M148.66,323.18l7.1-61.16l7.36,61.16H148.66z M375.04,250.91v-26.08h-72.56
			l-11.94,87.12l-11.8-87.12h-26.17l2.93,23.26c-3.02-5.96-13.73-23.26-37.31-23.26c-0.16-0.01-26.2,0-26.2,0l-0.1,126.98
			l-19.07-126.98l-34.27-0.01l-19.73,131.57l0-131.55h-32.8L74.2,298.73l-11.52-73.91H29.87v143.03h25.84v-68.94l11.76,68.94H81.2
			l11.59-68.94v68.94h49.81l3.01-22h20.05l3.01,22l48.91,0.03h0.04v-0.03h0.06v-46.43l5.99-0.88l12.41,47.33h25.3l-0.01-0.03h0.07
			l-16.29-55.46c8.25-6.11,17.57-21.61,15.09-36.45c0,0,0,0,0-0.01c0.03,0.19,15.37,92.01,15.37,92.01l30.09-0.09l20.56-129.64
			v129.64h48.77v-25.72h-23.15v-32.8h23.15v-26.12h-23.15v-32.31H375.04L375.04,250.91z"/>
	</g>
</g>
</svg>
